<svg width="243" height="56" viewBox="0 0 243 56" fill="none" xmlns="http://www.w3.org/2000/svg">
<path d="M231.595 19.8768L223.507 23.8705C223.068 23.2204 222.495 22.7097 221.788 22.3385C221.076 21.9531 220.265 21.7508 219.356 21.7316C218.455 21.6924 217.479 21.893 216.429 22.3335C215.024 22.9229 213.964 23.7181 213.249 24.719C212.528 25.7057 212.372 26.6887 212.783 27.668C213.111 28.4485 213.7 28.9775 214.55 29.2549C215.401 29.5322 216.654 29.5156 218.31 29.2051L224.728 27.9147C228.181 27.234 230.992 27.29 233.16 28.0827C235.328 28.8755 236.907 30.4498 237.895 32.8058C238.794 34.9488 238.951 37.0943 238.367 39.242C237.797 41.3839 236.609 43.3673 234.804 45.1925C233.008 46.9974 230.691 48.4953 227.852 49.6859C223.524 51.5017 219.697 52.0472 216.372 51.3223C213.055 50.5773 210.522 48.7359 208.772 45.7981L217.496 41.5881C218.319 42.7948 219.395 43.5287 220.722 43.7895C222.044 44.0361 223.514 43.8201 225.132 43.1414C226.722 42.4746 227.871 41.6337 228.58 40.6186C229.297 39.5834 229.458 38.5731 229.061 37.5879C228.702 36.7707 228.071 36.2424 227.17 36.003C226.262 35.7495 225.039 35.7785 223.501 36.09L217.365 37.337C213.904 38.0379 211.062 37.9281 208.84 37.0076C206.632 36.0812 205.016 34.3974 203.992 31.9563C203.111 29.8558 202.92 27.8082 203.418 25.8133C203.931 23.8125 205.051 21.9659 206.777 20.2736C208.518 18.5753 210.787 17.1397 213.583 15.9669C217.713 14.2345 221.329 13.744 224.431 14.4955C227.548 15.241 229.936 17.0347 231.595 19.8768Z" fill="black"/>
<path d="M181.318 48.928L185.921 13.7684L195.375 15.006L194.572 21.1406L194.938 21.1885C195.865 19.0902 197.156 17.583 198.813 16.6668C200.471 15.7353 202.285 15.3984 204.254 15.6561C204.742 15.72 205.264 15.8195 205.821 15.9544C206.378 16.0894 206.863 16.2383 207.276 16.401L206.143 25.0536C205.703 24.8563 205.086 24.6513 204.291 24.4386C203.496 24.2259 202.763 24.0756 202.092 23.9877C200.657 23.7999 199.335 23.9449 198.123 24.4228C196.929 24.8873 195.933 25.626 195.132 26.6389C194.348 27.6537 193.861 28.8783 193.674 30.3128L191.07 50.2045L181.318 48.928Z" fill="black"/>
<path d="M168.228 50.7123C164.647 51.4039 161.424 51.2738 158.56 50.3221C155.708 49.3524 153.328 47.6644 151.422 45.2582C149.512 42.8369 148.203 39.7902 147.494 36.1181C146.802 32.5367 146.89 29.2594 147.758 26.286C148.626 23.3126 150.176 20.8267 152.408 18.8282C154.654 16.8269 157.486 15.4965 160.901 14.837C163.198 14.3934 165.407 14.3508 167.53 14.7089C169.665 15.0491 171.614 15.8091 173.378 16.9889C175.157 18.1658 176.677 19.7847 177.937 21.8456C179.194 23.8913 180.108 26.3951 180.68 29.3569L181.192 32.009L151.793 37.686L150.638 31.702L170.947 27.7801C170.679 26.3899 170.139 25.2167 169.327 24.2605C168.516 23.3043 167.515 22.6276 166.325 22.2303C165.148 21.815 163.857 21.743 162.451 22.0144C160.985 22.2975 159.752 22.8884 158.749 23.7873C157.76 24.6681 157.057 25.7365 156.641 26.9924C156.222 28.2332 156.138 29.5426 156.389 30.9207L157.487 36.6101C157.82 38.3327 158.425 39.7599 159.301 40.8916C160.193 42.0204 161.294 42.8109 162.604 43.2633C163.914 43.7157 165.378 43.7858 166.995 43.4736C168.068 43.2664 169.021 42.9256 169.854 42.4512C170.687 41.9768 171.363 41.3761 171.881 40.6491C172.399 39.9221 172.739 39.0883 172.902 38.1476L181.947 37.0124C181.908 39.2458 181.341 41.299 180.244 43.1722C179.161 45.0273 177.602 46.6137 175.568 47.9313C173.546 49.2309 171.099 50.1579 168.228 50.7123Z" fill="black"/>
<path d="M124.383 39.8604L124.994 28.0794L126.424 28.1509L138.44 15.2753L149.714 15.8386L133.585 32.8772L131.256 32.7609L124.383 39.8604ZM114.974 49.6069L117.333 2.38635L127.155 2.87702L124.796 50.0976L114.974 49.6069ZM137.108 50.7127L127.457 34.767L134.352 28.1539L148.614 51.2874L137.108 50.7127Z" fill="black"/>
<path d="M89.2266 30.5666L91.0531 50.9852L81.2577 51.8615L78.0983 16.5429L87.4338 15.7078L87.9912 21.9391L88.4051 21.9021C89.0031 19.778 90.1684 18.0359 91.901 16.6756C93.6321 15.3001 95.8084 14.495 98.4297 14.2606C100.882 14.0411 103.069 14.3864 104.989 15.2962C106.909 16.2061 108.464 17.6122 109.654 19.5145C110.843 21.4014 111.56 23.7169 111.805 26.4608L113.817 48.9488L104.022 49.8251L102.166 29.0846C101.988 26.9218 101.286 25.285 100.058 24.1741C98.8295 23.0478 97.234 22.5725 95.2719 22.748C93.9536 22.8659 92.8139 23.2537 91.8529 23.9114C90.9073 24.5677 90.1995 25.4655 89.7297 26.6046C89.2738 27.727 89.1061 29.0477 89.2266 30.5666Z" fill="black"/>
<path d="M55.6664 50.7314C52.1661 49.952 49.3047 48.5344 47.082 46.4784C44.8777 44.4109 43.3823 41.8862 42.5956 38.9044C41.8123 35.9076 41.8154 32.6366 42.6049 29.0913C43.401 25.5159 44.7879 22.5451 46.7654 20.1789C48.7462 17.7976 51.1717 16.146 54.0416 15.2241C56.93 14.2905 60.1243 14.2135 63.6245 14.9929C67.1248 15.7723 69.977 17.1958 72.1813 19.2634C74.404 21.3193 75.9069 23.8457 76.6902 26.8424C77.4769 29.8242 77.4721 33.1028 76.6759 36.6781C75.8865 40.2234 74.5013 43.1867 72.5205 45.568C70.543 47.9343 68.11 49.5842 65.2217 50.5177C62.3517 51.4396 59.1666 51.5109 55.6664 50.7314ZM57.3673 43.3053C58.9597 43.6599 60.3895 43.5053 61.6568 42.8415C62.9275 42.1626 64.0088 41.0947 64.9009 39.6378C65.808 38.1842 66.4856 36.4509 66.9339 34.4378C67.3821 32.4248 67.504 30.5677 67.2994 28.8666C67.1098 27.1688 66.5837 25.743 65.7212 24.5891C64.8587 23.4352 63.6312 22.681 62.0388 22.3264C60.4314 21.9685 58.9773 22.1256 57.6767 22.7978C56.391 23.4733 55.2946 24.5378 54.3875 25.9914C53.4955 27.4484 52.8253 29.1833 52.3771 31.1964C51.9288 33.2094 51.7995 35.0648 51.989 36.7626C52.1936 38.4637 52.7347 39.8929 53.6123 41.0501C54.5082 42.1957 55.7599 42.9474 57.3673 43.3053Z" fill="black"/>
<path d="M9.68209 53.5755L0.475098 7.20117L19.043 3.51478C22.4546 2.83744 25.4006 2.7782 27.8808 3.33706C30.3611 3.89593 32.3532 4.95967 33.8571 6.5283C35.3581 8.08183 36.3393 10.021 36.8009 12.3457C37.1605 14.1572 37.1144 15.8218 36.6626 17.3393C36.2077 18.8418 35.4331 20.1567 34.3389 21.284C33.2568 22.3932 31.9441 23.2893 30.4008 23.9723L30.4907 24.4252C32.2719 24.15 34.0238 24.32 35.7464 24.9352C37.4841 25.5473 39.0008 26.5877 40.2966 28.0565C41.5894 29.5101 42.4621 31.3767 42.9147 33.6561C43.4032 36.1167 43.2279 38.4346 42.3887 40.6096C41.5617 42.7665 40.0741 44.6388 37.9258 46.2264C35.7775 47.8141 32.9674 48.9525 29.4954 49.6419L9.68209 53.5755ZM17.8954 43.613L25.8886 42.0261C28.621 41.4836 30.5102 40.5672 31.5564 39.2768C32.5995 37.9714 32.9473 36.4431 32.5996 34.692C32.3449 33.4088 31.8106 32.3381 30.9969 31.4797C30.1831 30.6214 29.1472 30.0268 27.889 29.6961C26.6459 29.3623 25.2394 29.3513 23.6694 29.663L15.4498 31.2949L17.8954 43.613ZM14.1326 24.6602L21.4012 23.2172C22.7447 22.9504 23.8908 22.4797 24.8395 21.8049C25.8003 21.112 26.4957 20.2679 26.9257 19.2724C27.3708 18.274 27.472 17.1634 27.2293 15.9407C26.8966 14.265 26.0321 13.0323 24.6357 12.2426C23.2544 11.4498 21.4769 11.2692 19.3031 11.7008L11.8533 13.1799L14.1326 24.6602Z" fill="black"/>
</svg>
